<?xml version="1.0" encoding="UTF-8" standalone="no"?>
<svg width="600" height="400" viewBox="0 0 600 400" fill="none" xmlns="http://www.w3.org/2000/svg">
  <rect width="600" height="400" fill="#F8FAFC"/>
  
  <!-- Chart background -->
  <rect x="50" y="50" width="500" height="300" rx="10" fill="white" stroke="#E2E8F0" stroke-width="2"/>
  
  <!-- Chart title -->
  <text x="300" y="30" font-family="Arial" font-size="18" font-weight="bold" fill="#0F172A" text-anchor="middle">DOVE Charity Impact 2025</text>
  
  <!-- Y-axis -->
  <line x1="100" y1="300" x2="100" y2="100" stroke="#CBD5E1" stroke-width="2"/>
  <text x="95" y="100" font-family="Arial" font-size="12" fill="#64748B" text-anchor="end">$1M</text>
  <text x="95" y="150" font-family="Arial" font-size="12" fill="#64748B" text-anchor="end">$750K</text>
  <text x="95" y="200" font-family="Arial" font-size="12" fill="#64748B" text-anchor="end">$500K</text>
  <text x="95" y="250" font-family="Arial" font-size="12" fill="#64748B" text-anchor="end">$250K</text>
  <text x="95" y="300" font-family="Arial" font-size="12" fill="#64748B" text-anchor="end">$0</text>
  
  <!-- X-axis -->
  <line x1="100" y1="300" x2="500" y2="300" stroke="#CBD5E1" stroke-width="2"/>
  <text x="150" y="320" font-family="Arial" font-size="12" fill="#64748B" text-anchor="middle">Jan</text>
  <text x="200" y="320" font-family="Arial" font-size="12" fill="#64748B" text-anchor="middle">Feb</text>
  <text x="250" y="320" font-family="Arial" font-size="12" fill="#64748B" text-anchor="middle">Mar</text>
  <text x="300" y="320" font-family="Arial" font-size="12" fill="#64748B" text-anchor="middle">Apr</text>
  <text x="350" y="320" font-family="Arial" font-size="12" fill="#64748B" text-anchor="middle">May</text>
  <text x="400" y="320" font-family="Arial" font-size="12" fill="#64748B" text-anchor="middle">Jun</text>
  <text x="450" y="320" font-family="Arial" font-size="12" fill="#64748B" text-anchor="middle">Jul</text>
  <text x="500" y="320" font-family="Arial" font-size="12" fill="#64748B" text-anchor="middle">Aug</text>
  
  <!-- Bar Chart -->
  <rect x="130" y="250" width="40" height="50" fill="#0EA5E9" rx="4"/>
  <rect x="180" y="230" width="40" height="70" fill="#0EA5E9" rx="4"/>
  <rect x="230" y="210" width="40" height="90" fill="#0EA5E9" rx="4"/>
  <rect x="280" y="180" width="40" height="120" fill="#0EA5E9" rx="4"/>
  <rect x="330" y="160" width="40" height="140" fill="#0EA5E9" rx="4"/>
  <rect x="380" y="130" width="40" height="170" fill="#0EA5E9" rx="4"/>
  <rect x="430" y="120" width="40" height="180" fill="#0EA5E9" rx="4"/>
  <rect x="480" y="110" width="40" height="190" fill="#0EA5E9" rx="4"/>
  
  <!-- Line Chart Overlay -->
  <path d="M150 240 L200 220 L250 190 L300 170 L350 140 L400 120 L450 110 L500 100" stroke="#0369A1" stroke-width="3" fill="none" stroke-linecap="round" stroke-linejoin="round"/>
  
  <!-- Data points -->
  <circle cx="150" cy="240" r="5" fill="#0369A1"/>
  <circle cx="200" cy="220" r="5" fill="#0369A1"/>
  <circle cx="250" cy="190" r="5" fill="#0369A1"/>
  <circle cx="300" cy="170" r="5" fill="#0369A1"/>
  <circle cx="350" cy="140" r="5" fill="#0369A1"/>
  <circle cx="400" cy="120" r="5" fill="#0369A1"/>
  <circle cx="450" cy="110" r="5" fill="#0369A1"/>
  <circle cx="500" cy="100" r="5" fill="#0369A1"/>
  
  <!-- Legend -->
  <rect x="400" y="60" width="15" height="15" fill="#0EA5E9" rx="2"/>
  <text x="425" y="72" font-family="Arial" font-size="12" fill="#0F172A">Donation Amount</text>
  
  <circle cx="407" cy="90" r="5" fill="#0369A1"/>
  <text x="425" y="94" font-family="Arial" font-size="12" fill="#0F172A">Beneficiaries Growth</text>
</svg>
