<?xml version="1.0" encoding="UTF-8" standalone="no"?>
<svg width="600" height="400" viewBox="0 0 600 400" fill="none" xmlns="http://www.w3.org/2000/svg">
  <rect width="600" height="400" fill="#F0F9FF"/>
  
  <!-- Background elements -->
  <circle cx="300" cy="200" r="150" fill="#BAE6FD" fill-opacity="0.3"/>
  <circle cx="300" cy="200" r="100" fill="#7DD3FC" fill-opacity="0.3"/>
  
  <!-- Dove silhouette -->
  <path d="M380 180C380 146.863 353.137 120 320 120C286.863 120 260 146.863 260 180C260 213.137 286.863 240 320 240C353.137 240 380 213.137 380 180Z" fill="#0EA5E9"/>
  <path d="M350 180C350 163.431 336.569 150 320 150C303.431 150 290 163.431 290 180C290 196.569 303.431 210 320 210C336.569 210 350 196.569 350 180Z" fill="white"/>
  <path d="M330 170C330 164.477 325.523 160 320 160C314.477 160 310 164.477 310 170C310 175.523 314.477 180 320 180C325.523 180 330 175.523 330 170Z" fill="#0C4A6E"/>
  
  <!-- Stylized wings -->
  <path d="M230 180C230 180 200 130 260 110C320 90 320 180 320 180C320 180 320 90 380 110C440 130 410 180 410 180" stroke="#0284C7" stroke-width="10" stroke-linecap="round"/>
  
  <!-- Olive branch -->
  <path d="M340 190C340 190 360 200 380 190C400 180 420 200 420 220" stroke="#047857" stroke-width="6" stroke-linecap="round"/>
  <path d="M370 187C370 187 375 175 385 180C395 185 390 195 385 200" stroke="#047857" stroke-width="4" stroke-linecap="round"/>
  <path d="M410 205C410 205 415 193 425 198C435 203 430 213 425 218" stroke="#047857" stroke-width="4" stroke-linecap="round"/>
  
  <!-- Coin/token elements -->
  <circle cx="220" cy="260" r="30" fill="#0284C7"/>
  <circle cx="220" cy="260" r="25" fill="#0EA5E9"/>
  <circle cx="220" cy="260" r="20" fill="#38BDF8"/>
  <circle cx="220" cy="260" r="15" fill="#7DD3FC"/>
  <text x="213" y="265" font-family="Arial" font-size="14" font-weight="bold" fill="#0C4A6E">$</text>
  
  <circle cx="270" cy="290" r="25" fill="#0284C7"/>
  <circle cx="270" cy="290" r="20" fill="#0EA5E9"/>
  <circle cx="270" cy="290" r="15" fill="#38BDF8"/>
  <text x="264" y="295" font-family="Arial" font-size="12" font-weight="bold" fill="#0C4A6E">$</text>
  
  <circle cx="180" cy="290" r="20" fill="#0284C7"/>
  <circle cx="180" cy="290" r="15" fill="#0EA5E9"/>
  <circle cx="180" cy="290" r="10" fill="#38BDF8"/>
  <text x="176" y="294" font-family="Arial" font-size="10" font-weight="bold" fill="#0C4A6E">$</text>
  
  <!-- Shadow -->
  <ellipse cx="320" cy="320" rx="150" ry="20" fill="#0284C7" fill-opacity="0.2"/>
</svg>
