<?xml version="1.0" encoding="UTF-8" standalone="no"?>
<svg width="400" height="300" viewBox="0 0 400 300" fill="none" xmlns="http://www.w3.org/2000/svg">
  <rect width="400" height="300" fill="#E5F3FF"/>
  <path d="M200 80C230.928 80 256 105.072 256 136C256 166.928 230.928 192 200 192C169.072 192 144 166.928 144 136C144 105.072 169.072 80 200 80Z" fill="#0EA5E9"/>
  <path d="M240 136C240 128.954 234.627 123 228 123C221.373 123 216 128.954 216 136C216 143.046 221.373 149 228 149C234.627 149 240 143.046 240 136Z" fill="white"/>
  <path d="M200 160C213.255 160 224 149.255 224 136C224 122.745 213.255 112 200 112C186.745 112 176 122.745 176 136C176 149.255 186.745 160 200 160Z" fill="white"/>
  <path d="M256 136C256 145.941 253.654 155.117 249.142 163.284L220.858 134.858C220.858 134.858 225.142 118.716 236.858 118.716C248.574 118.716 256 136 256 136Z" fill="#0369A1"/>
  <path d="M200 220C255.228 220 300 210.493 300 198.667C300 186.84 255.228 177.333 200 177.333C144.772 177.333 100 186.84 100 198.667C100 210.493 144.772 220 200 220Z" fill="#0284C7" fill-opacity="0.3"/>
  <path d="M180 153.333L140 200H260L220 153.333H180Z" fill="#075985"/>
</svg>
